<svg xmlns="http://www.w3.org/2000/svg" xmlns:xlink="http://www.w3.org/1999/xlink" version="1.1" x="0px" y="0px" width="96.861px" height="22.011px" viewBox="0 0 96.861 22.011" enable-background="new 0 0 96.861 22.011" xml:space="preserve"><style>.style0{fill:	#010101;}</style><g><path d="M8.574 3.401h4.42V0H0v3.401h4.421v6.798h0.003h4.15V3.401z M15.274 10.199h11.984V0h-4.118v8.134h-3.785V0 h-4.081V10.199z M30.403 10.199h10.631V8.1h-6.548V3.329h6.548V0H30.403V10.199z M49.431 10.199h4.154V0h-4.154V10.199z M62.722 10.199h4.185V0h-4.185V10.199z M70.229 10.199h8.005L73.111 0h-2.882V10.199z M78.897 10.199h4.028V0h-4.028V10.199z M86.234 10.199h10.627V8.1h-6.543V3.329h6.543V0H86.234V10.199z" class="style0"/><path d="M74.255 11.811h-4.025v10.2h4.025V11.811z M8.574 11.811H4.421v10.2h4.153V11.811z M23.141 22.011h4.118 v-10.2H15.274v10.2h4.081v-8.1h3.785V22.011z M30.403 22.011h10.631v-3.33h-6.547v-4.77h6.547v-2.1H30.403V22.011z M49.431 22.01 h10.632v-3.33h-6.477v-6.87h-4.154V22.011z M62.722 22.011h4.185V11.812h-4.185V22.011z M80.042 22.011h2.884v-10.2h-8.004 L80.042 22.011z M90.318 18.681v-4.77h6.543v-2.1H86.234v10.2h10.627v-3.33H90.318z" class="style0"/></g><g></g><g></g><g></g><g></g><g></g><g></g></svg>