<svg xmlns="http://www.w3.org/2000/svg" xmlns:xlink="http://www.w3.org/1999/xlink" version="1.1" x="0px" y="0px" width="648.766px" height="146.229px" viewBox="0 0 648.766 146.229" enable-background="new 0 0 648.766 146.229" xml:space="preserve"><style>.style0{fill:	#010101;}</style><path d="M497.351 77.91h-26.967v68.319h26.967V77.91z M57.414 77.91H29.612v68.319h27.802V77.91z M57.414 22.792 h29.608V0H0v22.792h29.608v45.527h0.004H57.41h0.004V22.792z M102.3 68.319h80.265V0h-27.574v54.478h-25.346V0H102.3V68.319z M154.991 146.229h27.574V77.91H102.3v68.319h27.345V91.98h25.346V146.229z M203.638 68.319h71.186v-14.07h-43.841V22.316h43.841V0 h-71.186V68.319z M203.638 146.229h71.186v-22.316h-43.841V91.98h43.841V77.91h-71.186V146.229z M331.092 68.319h27.803V0h-27.803 V68.319z M331.092 146.229h71.186v-22.318h-43.384V77.91h-27.803V146.229z M420.102 68.319h28.031V0h-28.031V68.319z M420.102 146.229h28.031V77.91h-28.031V146.229z M470.383 68.319h53.61L489.681 0h-19.298V68.319z M528.445 68.319h26.967V0 h-26.967V68.319z M536.114 146.229h19.298V77.91h-53.609L536.114 146.229z M577.58 68.319h71.185v-14.07h-43.84V22.316h43.84V0 H577.58V68.319z M604.926 123.913V91.98h43.84V77.91H577.58v68.319h71.185v-22.316H604.926z" class="style0"/><g></g><g></g><g></g><g></g><g></g><g></g></svg>