<?xml version="1.0" encoding="utf-8"?>
<!-- Generator: Adobe Illustrator 19.1.0, SVG Export Plug-In . SVG Version: 6.00 Build 0)  -->
<!DOCTYPE svg PUBLIC "-//W3C//DTD SVG 1.1//EN" "http://www.w3.org/Graphics/SVG/1.1/DTD/svg11.dtd">
<svg version="1.1" id="Layer_1" xmlns="http://www.w3.org/2000/svg" xmlns:xlink="http://www.w3.org/1999/xlink" x="0px" y="0px"
	 width="37px" height="24px" viewBox="0 0 37 24" enable-background="new 0 0 37 24" xml:space="preserve">
<g>
	<path fill="#F1F1F1" d="M34.251,0H2.749C1.237,0,0,1.237,0,2.749v17.27v1.233C0,22.763,1.237,24,2.749,24h31.503
		C35.763,24,37,22.763,37,21.251v-1.233V2.749C37,1.237,35.763,0,34.251,0z"/>
	<g>
		<g>
			<circle fill="#989898" cx="24.597" cy="12.04" r="8.458"/>
		</g>
		<g>
			<path fill="#333333" d="M21.706,12.568c0.01-0.167,0.015-0.335,0.015-0.504c0-0.008,0-0.016,0-0.023l-0.018-0.527
				c-0.011-0.177-0.028-0.353-0.05-0.527h-5.446c0.022-0.178,0.05-0.353,0.083-0.527h5.279c-0.034-0.178-0.073-0.354-0.119-0.527
				h-5.043c0.046-0.178,0.098-0.354,0.154-0.527h4.733C21.235,9.226,21.17,9.051,21.1,8.878h-4.346
				c0.072-0.179,0.15-0.355,0.234-0.527h3.876c-0.088-0.179-0.182-0.355-0.282-0.527h-3.315c0.104-0.18,0.214-0.356,0.33-0.527
				h2.652c-0.124-0.181-0.254-0.357-0.392-0.527h-1.872c0.145-0.182,0.298-0.358,0.457-0.527h0.954
				c-1.541-1.623-3.719-2.635-6.134-2.635c-4.671,0-8.458,3.787-8.458,8.458c0,4.671,3.787,8.458,8.458,8.458
				c2.187,0,4.18-0.83,5.681-2.192c-0.174-0.156-0.341-0.319-0.501-0.489h0.997c0.158-0.169,0.31-0.345,0.455-0.527h-1.909
				c-0.136-0.171-0.266-0.346-0.389-0.527h2.684c0.116-0.171,0.225-0.347,0.328-0.527h-3.343c-0.099-0.172-0.192-0.348-0.279-0.527
				h3.9c0.083-0.173,0.16-0.348,0.232-0.527h-4.365c-0.07-0.173-0.134-0.349-0.193-0.527h4.748c0.056-0.173,0.107-0.349,0.153-0.527
				h-1.839c-0.045-0.174-0.083-0.35-0.117-0.527h2.071c0.032-0.174,0.06-0.35,0.081-0.527h-1.904v-0.527H21.706z M17.119,13.095
				h-0.912c-0.022-0.174-0.038-0.35-0.049-0.527h0.96V13.095z"/>
		</g>
		<g>
			<polygon fill="#FFFFFF" points="5.624,14.177 6.283,10.424 7.64,10.424 7.766,12.582 8.683,10.424 10.117,10.424 9.447,14.177 
				8.645,14.177 9.128,11.423 7.969,14.177 7.058,14.177 6.904,11.385 6.426,14.177 			"/>
		</g>
		<g>
			<g>
				<path fill="#FFFFFF" d="M12.447,11.332c-0.337-0.242-0.608-0.245-0.608-0.245H11.03c0,0-0.227,0.015-0.388,0.055
					c-0.161,0.04-0.205,0.095-0.205,0.095l-0.201,0.721c0,0,0.366-0.205,1.084-0.205s0.472,0.461,0.472,0.461h-0.516
					c0,0-0.593-0.037-1.014,0.256C9.84,12.763,9.8,13.309,9.8,13.309s-0.088,0.923,0.849,0.923c0,0,0.589,0.029,0.937-0.337
					l-0.051,0.282h0.751l0.428-2.248C12.714,11.929,12.784,11.573,12.447,11.332z M11.66,13.14c0,0-0.095,0.432-0.674,0.432
					c0,0-0.315,0.015-0.315-0.286c0-0.3,0.315-0.447,0.315-0.447s0.249-0.124,0.557-0.124c0,0,0.205,0,0.194,0.062L11.66,13.14z"/>
			</g>
		</g>
		<g>
			<path fill="#FFFFFF" d="M15.073,11.124l-0.146,0.659c0,0-0.371-0.052-0.541-0.052c-0.17,0-0.478-0.003-0.588,0.203
				c0,0-0.181,0.211,0.376,0.404c0,0,0.747,0.135,0.722,0.741c-0.025,0.607-0.266,0.802-0.266,0.802s-0.302,0.321-1.126,0.321
				c-0.824,0-1-0.148-1-0.148l0.143-0.654c0,0,0.428,0.146,0.857,0.146c0.428,0,0.456-0.225,0.456-0.225s0.049-0.25-0.137-0.316
				c-0.187-0.066-1.013-0.31-0.964-0.901c0.049-0.59,0.305-0.788,0.305-0.788s0.31-0.283,1.12-0.25
				C14.285,11.066,14.809,11.086,15.073,11.124z"/>
		</g>
		<g>
			<path fill="#FFFFFF" d="M15.592,10.424l-0.571,3.237c0,0-0.081,0.516,0.491,0.516h0.513c0,0,0.278-0.026,0.384-0.143l0.088-0.52
				c0,0-0.124,0.044-0.395,0.044c-0.271,0-0.242-0.172-0.242-0.172l0.282-1.64l0.498-0.005l0.117-0.625h-0.487l0.128-0.692H15.592z"
				/>
		</g>
		<g>
			<g>
				<path fill="#FFFFFF" d="M18.121,11.066c0,0-1.085-0.091-1.483,0.991c-0.398,1.082,0.233,1.705,0.233,1.705
					s0.313,0.426,1.271,0.426c0,0,0.513,0.025,0.868-0.173l0.122-0.728c0,0-0.325,0.253-0.852,0.253c0,0-0.967,0.047-0.898-0.686
					h1.84c0,0,0.069-0.519,0.085-0.681C19.324,12.011,19.318,11.066,18.121,11.066z M18.527,12.275h-1.046
					c0,0,0.085-0.571,0.552-0.571C18.563,11.703,18.527,12.275,18.527,12.275z"/>
			</g>
		</g>
		<g>
			<path fill="#FFFFFF" d="M19.184,14.177l0.538-3.057h0.831l-0.092,0.48c0,0,0.33-0.509,0.688-0.509h0.333
				c0,0-0.242,0.322-0.322,0.816c0,0-0.256-0.066-0.546,0.082c-0.289,0.148-0.348,0.672-0.348,0.672l-0.227,1.516H19.184z"/>
		</g>
		<g>
			<path fill="#FFFFFF" d="M23.835,13.186l-0.115,0.769c0,0-0.192,0.234-0.89,0.234c-0.697,0-1-0.284-1-0.284
				s-1.005-0.676-0.412-2.318c0.593-1.642,2.34-1.252,2.34-1.252s0.294,0.066,0.546,0.184l-0.132,0.799c0,0-0.346-0.217-0.857-0.217
				s-0.752,0.28-0.752,0.28s-0.393,0.464-0.412,1.156c-0.019,0.692,0.563,0.824,0.563,0.824S23.369,13.562,23.835,13.186z"/>
		</g>
		<g>
			<g>
				<path fill="#FFFFFF" d="M26.58,11.332c-0.337-0.242-0.608-0.245-0.608-0.245h-0.809c0,0-0.227,0.015-0.388,0.055
					c-0.161,0.04-0.205,0.095-0.205,0.095l-0.201,0.721c0,0,0.366-0.205,1.084-0.205c0.718,0,0.472,0.461,0.472,0.461h-0.516
					c0,0-0.593-0.037-1.014,0.256s-0.461,0.838-0.461,0.838s-0.088,0.923,0.849,0.923c0,0,0.589,0.029,0.937-0.337l-0.051,0.282
					h0.751l0.428-2.248C26.847,11.929,26.916,11.573,26.58,11.332z M25.792,13.14c0,0-0.095,0.432-0.674,0.432
					c0,0-0.315,0.015-0.315-0.286c0-0.3,0.315-0.447,0.315-0.447s0.249-0.124,0.557-0.124c0,0,0.205,0,0.194,0.062L25.792,13.14z"/>
			</g>
		</g>
		<g>
			<path fill="#FFFFFF" d="M26.711,14.17l0.538-3.057h0.831l-0.092,0.48c0,0,0.319-0.509,0.758-0.509h0.176
				c0,0-0.088,0.255-0.168,0.75c0,0-0.33-0.029-0.581,0.134c-0.272,0.177-0.378,0.687-0.378,0.687l-0.227,1.516H26.711z"/>
		</g>
		<g>
			<g>
				<path fill="#FFFFFF" d="M31.002,10.424l-0.192,1.104c0,0-0.181-0.423-0.794-0.423c-0.612,0-1.068,0.574-1.068,0.574
					S28.52,12.2,28.52,12.975s0.492,1.087,0.492,1.087s0.222,0.17,0.563,0.17c0.34,0,0.522-0.129,0.522-0.129
					s0.118-0.074,0.275-0.195l-0.047,0.268l0.838-0.006l0.648-3.746H31.002z M30.464,13.109c-0.225,0.398-0.59,0.401-0.59,0.401
					s-0.275,0.025-0.382-0.343c-0.126-0.433,0.135-1.005,0.135-1.005s0.189-0.379,0.56-0.379c0.371,0,0.434,0.439,0.434,0.439
					S30.689,12.711,30.464,13.109z"/>
			</g>
		</g>
	</g>
</g>
</svg>
