<?xml version="1.0" encoding="utf-8"?>
<!-- Generator: Adobe Illustrator 19.1.0, SVG Export Plug-In . SVG Version: 6.00 Build 0)  -->
<!DOCTYPE svg PUBLIC "-//W3C//DTD SVG 1.1//EN" "http://www.w3.org/Graphics/SVG/1.1/DTD/svg11.dtd">
<svg version="1.1" id="Layer_1" xmlns="http://www.w3.org/2000/svg" xmlns:xlink="http://www.w3.org/1999/xlink" x="0px" y="0px"
	 width="37px" height="24px" viewBox="0 0 37 24" enable-background="new 0 0 37 24" xml:space="preserve">
<path fill="#F1F1F1" d="M34.257-0.046L2.746,0.001c-1.509,0-2.743,1.235-2.743,2.743v17.237v1.186C0.003,22.676,1.238,24,2.746,24
	h31.51C35.765,24,37,22.765,37,21.257v-1.186V2.834C37,1.325,35.765-0.046,34.257-0.046z"/>
<g>
	<path fill="#333333" d="M9.973,12.06c0.005,2.102,1.318,3.894,3.168,4.605V7.453C11.291,8.166,9.978,9.957,9.973,12.06z"/>
	<path fill="#333333" d="M21.552,3.568h-6.662C10.184,3.567,6.31,7.076,6.31,12.149c0,4.642,3.874,8.455,8.581,8.433h6.662
		c4.651,0,8.896-3.793,8.896-8.433C30.449,7.074,26.204,3.567,21.552,3.568z M14.91,19.847c-4.301-0.001-7.786-3.486-7.787-7.787
		c0.001-4.301,3.486-7.787,7.787-7.789c4.302,0.002,7.787,3.487,7.788,7.789C22.697,16.361,19.211,19.846,14.91,19.847z"/>
	<path fill="#333333" d="M16.676,7.452v9.215c1.852-0.711,3.167-2.503,3.171-4.607C19.843,9.957,18.528,8.163,16.676,7.452z"/>
</g>
</svg>
