<?xml version="1.0" encoding="utf-8"?>
<!-- Generator: Adobe Illustrator 19.1.0, SVG Export Plug-In . SVG Version: 6.00 Build 0)  -->
<!DOCTYPE svg PUBLIC "-//W3C//DTD SVG 1.1//EN" "http://www.w3.org/Graphics/SVG/1.1/DTD/svg11.dtd">
<svg version="1.1" id="Layer_1" xmlns="http://www.w3.org/2000/svg" xmlns:xlink="http://www.w3.org/1999/xlink" x="0px" y="0px"
	 width="37px" height="24px" viewBox="0 0 37 24" enable-background="new 0 0 37 24" xml:space="preserve">
<path fill="#F1F1F1" d="M34.211,0.01H2.702c-1.51,0-2.745,1.235-2.745,2.745v17.251l0.062,1.592c0,1.51,1.235,2.427,2.745,2.427
	h31.509c1.51,0,2.668-0.917,2.668-2.427l0.016-1.592V2.755C36.957,1.245,35.721,0.01,34.211,0.01z"/>
<g>
	<path fill="#333333" d="M6.854,6.094v7.238c0.533,0.273,1.488,0.671,2.518,0.671c1.566,0,1.55-1.338,1.55-1.338v-3.47h2.487
		c0,0,0,2.849,0,3.557c0,0.708-0.472,1.228-0.472,1.228s-0.63,0.952-2.943,0.952c-1.699,0-2.718-0.246-3.14-0.377v6.105h4.344
		c1.545,0,2.809-1.264,2.809-2.809V3.285H9.663C8.118,3.285,6.854,4.549,6.854,6.094z"/>
	<path fill="#333333" d="M14.894,6.105v3.829c0.477-0.387,1.338-0.647,1.338-0.647s0.826-0.254,2.238-0.254
		c1.412,0,2.755,0.366,2.755,0.366v1.222c-1.428-0.809-2.957-0.626-2.957-0.626s-1.346,0.136-1.664,1.334
		c-0.325,1.222,0.307,1.936,0.307,1.936s0.46,0.744,1.83,0.744s2.485-0.667,2.485-0.667v1.228c-0.986,0.354-2.951,0.362-2.951,0.362
		c-2.113,0-3.11-0.674-3.38-0.895v6.634h4.344c1.545,0,2.809-1.264,2.809-2.809V3.296h-4.344C16.158,3.296,14.894,4.56,14.894,6.105
		z"/>
	<path fill="#333333" d="M24.315,13.884h1.645c0,0,0.826,0.028,0.826-0.767c0-0.795-0.755-0.771-0.755-0.771h-1.715V13.884z"/>
	<path fill="#333333" d="M22.907,6.184v3.008c0.848,0,3.707,0,3.948,0c0.283,0,0.616,0.026,0.616,0.026s1.44,0.087,1.44,1.298
		s-1.353,1.401-1.353,1.401s1.692,0.024,1.692,1.409c0,1.385-1.692,1.44-1.692,1.44h-4.651v5.984h4.344
		c1.545,0,2.809-1.264,2.809-2.809V3.375h-4.344C24.171,3.375,22.907,4.639,22.907,6.184z"/>
	<path fill="#333333" d="M26.597,10.752c0-0.622-0.673-0.673-0.673-0.673h-1.609v1.389h1.645
		C25.96,11.469,26.597,11.48,26.597,10.752z"/>
</g>
</svg>
