<?xml version="1.0" encoding="utf-8"?>
<!-- Generator: Adobe Illustrator 19.1.0, SVG Export Plug-In . SVG Version: 6.00 Build 0)  -->
<!DOCTYPE svg PUBLIC "-//W3C//DTD SVG 1.1//EN" "http://www.w3.org/Graphics/SVG/1.1/DTD/svg11.dtd">
<svg version="1.1" id="Layer_1" xmlns="http://www.w3.org/2000/svg" xmlns:xlink="http://www.w3.org/1999/xlink" x="0px" y="0px"
	 width="36.81px" height="24px" viewBox="0 0 36.81 24" enable-background="new 0 0 36.81 24" xml:space="preserve">
<g>
	<path fill="#333333" d="M0,19.791v1.364C0,22.696,1.218,24,2.76,24h31.247c1.542,0,2.803-1.261,2.803-2.803v-1.364 M36.81,20.326
		V2.803C36.81,1.261,35.549,0,34.007,0H2.76C1.218,0,0,1.218,0,2.76v5.776l0.945-2.275L1.18,5.708h0.601h1.54h0.598l0.236,0.55
		l0.011,0.025V5.708h0.909h1.679h0.581l0.244,0.527l0.485,1.048L8.5,6.261l0.235-0.553h0.601h1.582h0.135h0.774h0.135h3.114h0.185
		h0.724h0.185h2.688h0.021l0.021,0.001c0.352,0.016,0.654,0.087,0.91,0.193V5.708h0.909h1.043h0.909v0.394
		c0.484-0.288,1.015-0.394,1.422-0.394c0.022,0,0.041,0,0.055,0.001h1.248h0.909h1.48h0.598l0.237,0.55l0.005,0.011v-0.56h0.909
		h1.574h0.514l0.265,0.44l0.122,0.202V5.708h0.909h1.048h1.707v0.909v4.296v0.909h-1.707h-1.46h-0.514l-0.265-0.441l-0.264-0.44
		v0.881h-0.445h-0.463h-0.917h-0.101h-0.909h-0.168h-0.608l-0.232-0.562l-0.164-0.397h-0.924l-0.158,0.391l-0.23,0.569h-0.613
		h-1.384h-0.012l-0.012,0c-0.551-0.015-1.04-0.149-1.448-0.39v0.39h-0.909h-0.774h-0.269h-0.64h-0.269h-0.782h-2.013h-0.845h-0.185
		H15.26h-0.185h-3.114h-0.135h-0.774h-0.135H9.999H9.102H8.509H7.6H7.01l-0.003-0.006v0.006H6.098H4.009H3.387l-0.225-0.58
		l-0.153-0.395H2.072l-0.171,0.413l-0.233,0.561H1.061L0,11.779v8.504 M36.809,18.728c-0.306,0.396-0.779,0.508-1.435,0.508h-2.171
		h-0.909v-0.148c-0.254,0.089-0.559,0.148-0.926,0.148h-2.171h-0.909l0.003-0.004H25.38h-0.909H23.42h-0.909v-0.909v-0.662h-0.196
		v0.662v0.909h-0.909h-1.03h-0.909v-0.909v-0.741c-0.458,0.189-0.905,0.22-1.144,0.22c-0.029,0-0.052,0-0.068-0.001h-0.521v0.526
		v0.909h-0.909h-2.011h-0.406l-0.271-0.302l-0.602-0.672l-0.635,0.684l-0.27,0.29h-0.396H8.162H7.253v-0.909v-4.3v-0.909h0.909h4.14
		h0.407l0.271,0.303l0.603,0.675l0.642-0.689l0.27-0.289h0.395h3.513c0.432,0,0.782,0.079,1.065,0.194v-0.194h0.909h2.873h0.021
		l0.021,0.001c0.358,0.017,0.664,0.089,0.922,0.198v-0.199h0.909h3.434h0.909v0.175c0.282-0.112,0.612-0.179,1-0.179h2.118h0.909
		v0.329c0.232-0.199,0.544-0.329,0.979-0.329h2.118h0.22V18.728z"/>
</g>
<g>
	<path fill="#F1F1F1" d="M18.989,8.011V7.907c0,0,0.006-0.413-0.546-0.413c-0.552,0-1.433,0-1.433,0v0.969h1.449
		C18.459,8.462,18.989,8.453,18.989,8.011z"/>
</g>
<g>
	<polygon fill="#F1F1F1" points="2.526,7.295 1.806,9.056 3.245,9.056 	"/>
</g>
<g>
	<polygon fill="#F1F1F1" points="27.428,7.328 26.715,9.058 28.142,9.058 	"/>
</g>
<g>
	<path fill="#F1F1F1" d="M22.491,8.557c0.077-1.86,1.554-1.941,1.81-1.941c0.024,0,0.038,0.001,0.038,0.001h1.265v0.902
		c0,0-0.158,0-1.12,0c-0.963,0-0.95,1.082-0.95,1.082v0.335c0,0.997,0.687,1.069,0.885,1.069c0.033,0,0.053-0.002,0.053-0.002h0.53
		l1.672-3.385h1.546l1.886,4.061v-0.134V6.617h1.574l1.809,3.004V6.617h1.048v4.296h-1.46l-1.952-3.253v3.253h-2.233l-0.396-0.959
		h-2.146l-0.614,0.959h-1.384c-1.893-0.05-1.86-1.86-1.86-1.86V8.557z M20.76,6.617h1.043v4.297H20.76V6.617z M15.984,6.617h2.873
		c1.259,0.059,1.259,1.009,1.259,1.009v0.186c0,0.824-0.732,1.108-0.732,1.108s0.192,0.022,0.448,0.271
		c0.256,0.249,0.246,0.67,0.246,0.67v1.052h-1.051c0,0,0-0.125,0-0.892c0-0.623-0.481-0.682-0.662-0.682
		c-0.042,0-0.067,0.003-0.067,0.003h-1.284v1.571h-1.03V6.617z M11.827,6.617h3.434v0.876h-2.396v0.792h2.335v0.884h-2.335v0.852
		h2.396v0.892h-3.434V6.617z"/>
</g>
<g>
	<path fill="#F1F1F1" d="M34.472,13.114c-0.435,0-0.747,0.13-0.979,0.329v-0.329h-0.909h-2.118c-0.388,0-0.719,0.068-1,0.179v-0.175
		h-0.909h-3.434h-0.909v0.199c-0.259-0.109-0.564-0.181-0.922-0.198l-0.021-0.001H23.25h-2.873h-0.909v0.194
		c-0.282-0.115-0.632-0.194-1.065-0.194H14.89h-0.395l-0.27,0.289l-0.642,0.689l-0.603-0.675l-0.271-0.303h-0.407h-4.14H7.253v0.909
		v4.3v0.909h0.909h4.073h0.396l0.27-0.29l0.635-0.684l0.602,0.672l0.271,0.302h0.406h2.011h0.909v-0.909v-0.526
		c0,0,1.275-0.03,1.734-0.219v0.741v0.909h0.909h1.03h2.013h1.051h0.909h2.911l-0.003,0.004h0.909h2.171
		c0.366,0,0.672-0.059,0.926-0.148v0.148h0.909h2.171c0.656,0,1.213-0.175,1.435-0.55v-5.573h-0.22H34.472z M19.897,15.559
		c0,1.268-1.298,1.335-1.573,1.335c-0.033,0-0.051-0.001-0.051-0.001h-1.447v1.435h-2.011l-1.266-1.414l-1.313,1.414H8.162v-4.3
		h4.14l1.266,1.418l1.321-1.418c0,0,1.999,0,3.513,0c1.515,0,1.494,1.258,1.494,1.258V15.559z M24.509,15.222
		c0,0.824-0.732,1.108-0.732,1.108s0.193,0.022,0.448,0.271c0.256,0.249,0.246,0.67,0.246,0.67v1.052H23.42c0,0,0-0.125,0-0.892
		c0-0.623-0.481-0.682-0.662-0.682c-0.042,0-0.067,0.003-0.067,0.003h-1.284v1.571h-1.03v-4.296h2.873
		c1.259,0.059,1.259,1.009,1.259,1.009V15.222z M28.557,14.903h-2.396v0.792h2.335v0.884h-2.335v0.852h2.396v0.892h-3.434v-4.296
		h3.434V14.903z M32.792,17.138c0,0,0.013,1.19-1.423,1.19c-1.436,0-2.171,0-2.171,0v-0.925h2.14c0,0,0.38-0.021,0.38-0.309v-0.163
		c0,0-0.039-0.287-0.363-0.287s-0.671,0-0.671,0s-0.021,0.001-0.057,0.001c-0.29,0-1.577-0.066-1.577-1.237v-0.211
		c0,0,0.019-1.174,1.417-1.174c1.398,0,2.118,0,2.118,0v0.915h-1.988h-0.001c-0.022,0-0.456,0.004-0.456,0.322v0.147
		c0,0,0.002,0.297,0.425,0.297c0.423,0,0.797,0,0.797,0s0.023-0.001,0.064-0.001c0.278,0,1.366,0.069,1.366,1.145V17.138z
		 M36.798,17.138c0,0,0.013,1.19-1.423,1.19c-1.115,0-2.059,0-2.059,0l0.006-0.925h2.022c0,0,0.38-0.021,0.38-0.309v-0.163
		c0,0-0.039-0.287-0.363-0.287c-0.323,0-0.671,0-0.671,0s-0.021,0.001-0.057,0.001c-0.29,0-1.577-0.066-1.577-1.237v-0.211
		c0,0,0.019-1.174,1.417-1.174c1.398,0,2.118,0,2.118,0v0.915h-1.988H34.6c-0.022,0-0.456,0.004-0.456,0.322v0.147
		c0,0,0.002,0.297,0.425,0.297s0.797,0,0.797,0s0.023-0.001,0.064-0.001c0.278,0,1.366,0.069,1.366,1.145V17.138z"/>
</g>
<g>
	<path fill="#F1F1F1" d="M18.263,14.906c-0.007,0-0.011,0-0.011,0h-1.431v1.115h1.473c0,0,0.513-0.004,0.513-0.572
		C18.807,14.928,18.339,14.906,18.263,14.906z"/>
</g>
<g>
	<path fill="#F1F1F1" d="M22.836,14.903c-0.552,0-1.433,0-1.433,0v0.969h1.449c0,0,0.53-0.009,0.53-0.451v-0.104
		C23.382,15.317,23.388,14.903,22.836,14.903z"/>
</g>
<g>
	<polygon fill="#F1F1F1" points="9.18,14.911 9.18,15.71 11.44,15.71 11.44,16.577 9.18,16.577 9.18,17.444 11.713,17.444 
		12.887,16.177 11.772,14.911 	"/>
</g>
<g>
	<polygon fill="#F1F1F1" points="15.807,17.974 15.807,14.481 14.2,16.177 	"/>
</g>
<g>
	<path fill="none" d="M18.263,15.032h-1.316v0.865h1.346c0.066-0.001,0.39-0.03,0.39-0.447
		C18.683,15.072,18.389,15.032,18.263,15.032z"/>
	<path fill="none" d="M18.443,7.618h-1.308v0.719h1.324c0.039-0.001,0.405-0.019,0.405-0.326V7.907
		C18.864,7.859,18.841,7.618,18.443,7.618z"/>
	<path fill="none" d="M22.836,15.028h-1.308v0.719h1.323c0.039-0.001,0.405-0.019,0.405-0.326v-0.104
		C23.257,15.268,23.234,15.028,22.836,15.028z"/>
	<polygon fill="none" points="1.992,8.93 3.059,8.93 2.526,7.625 	"/>
	<polygon fill="none" points="9.305,15.035 9.305,15.585 11.565,15.585 11.565,16.702 9.305,16.702 9.305,17.319 11.659,17.319 
		12.719,16.175 11.715,15.035 	"/>
	<polygon fill="none" points="26.902,8.933 27.955,8.933 27.428,7.656 	"/>
	<polygon fill="none" points="15.682,17.647 15.682,14.795 14.37,16.18 	"/>
	<path fill="#333333" d="M18.857,6.492h-2.998v4.546h1.28V9.468l1.173-0.001c0.003,0,0.023-0.002,0.053-0.002
		c0.245,0,0.537,0.097,0.537,0.557v1.017h1.301V9.864c0-0.02,0.008-0.478-0.284-0.762c-0.092-0.09-0.178-0.153-0.251-0.198
		c0.24-0.166,0.573-0.503,0.573-1.091V7.626C20.241,7.616,20.226,6.556,18.857,6.492z M18.864,8.011
		c0,0.307-0.366,0.325-0.405,0.326h-1.324V7.618h1.308c0.397,0,0.42,0.24,0.421,0.289V8.011z"/>
	<polygon fill="#333333" points="15.385,9.896 12.989,9.896 12.989,9.294 15.324,9.294 15.324,8.16 12.989,8.16 12.989,7.618 
		15.385,7.618 15.385,6.492 11.702,6.492 11.702,11.038 15.385,11.038 	"/>
	<path fill="#333333" d="M31.248,8.112l1.757,2.926h1.656V6.492h-1.298v2.68l-1.613-2.68h-1.77v3.673l-0.001,0.193l-1.677-3.866
		h-1.711l-1.446,3.385l-0.727,0.002c-0.229,0-0.76-0.092-0.76-0.943V8.6c0-0.005-0.002-0.47,0.273-0.749
		c0.136-0.138,0.322-0.208,0.552-0.208h1.245V6.492l-1.428,0c-0.189,0-1.852,0.058-1.935,2.065v0.494
		c0,0.02-0.013,1.934,1.981,1.987h1.699l0.387-0.959h1.978l0.396,0.959h2.441V8.112z M26.902,8.933l0.526-1.277l0.526,1.277H26.902z
		"/>
	<path fill="#333333" d="M9.874,8.122v2.916h1.304V6.492H9.253l-1.16,2.723L6.835,6.492H4.951v3.598L3.403,6.492H1.698l-1.813,4.315
		l-0.01,0.184l1.269,0.051l0.405-0.978h1.996l0.379,0.974h2.3V8.123l1.296,2.915H8.59L9.874,8.122z M1.992,8.93l0.534-1.305
		L3.059,8.93H1.992z"/>
	<rect x="20.634" y="6.492" fill="#333333" width="1.293" height="4.547"/>
	<path fill="#333333" d="M18.403,13.902h-3.567l-1.265,1.357l-1.212-1.357H8.037v4.55h4.252l1.257-1.354l1.212,1.354h2.192v-1.435
		h1.316l0.058,0.001c0.284,0,1.698-0.07,1.698-1.459v-0.272c0-0.022,0.005-0.547-0.39-0.948
		C19.347,14.049,18.934,13.902,18.403,13.902z M11.659,17.319H9.305v-0.617h2.259v-1.117H9.305v-0.55h2.41l1.003,1.14L11.659,17.319
		z M15.682,17.647L14.37,16.18l1.312-1.385V17.647z M18.293,15.896h-1.346v-0.865h1.316c0.126,0,0.42,0.041,0.42,0.417
		C18.683,15.866,18.359,15.895,18.293,15.896z"/>
	<path fill="#333333" d="M23.256,13.902h-3.004v4.546h1.28v-1.57l1.176-0.001c0.003,0,0.022-0.002,0.051-0.002
		c0.245,0,0.537,0.097,0.537,0.557v1.017h1.301v-1.174c0-0.02,0.007-0.479-0.284-0.762c-0.092-0.09-0.178-0.153-0.251-0.198
		c0.24-0.167,0.573-0.504,0.573-1.092v-0.186C24.634,15.025,24.618,13.966,23.256,13.902z M23.257,15.421
		c0,0.307-0.366,0.325-0.405,0.326h-1.323v-0.719h1.308c0.397,0,0.42,0.24,0.421,0.289V15.421z"/>
	<path fill="#333333" d="M31.425,15.577c-0.04,0-0.064,0.001-0.065,0.001h-0.796c-0.277,0-0.299-0.146-0.3-0.172V15.26
		c0-0.195,0.318-0.197,0.332-0.197h2.113v-1.165h-2.243c-1.503,0-1.542,1.284-1.542,1.299v0.211c0,1.296,1.418,1.362,1.702,1.362
		l0.728-0.001c0.199,0,0.234,0.15,0.238,0.162v0.163c0,0.166-0.252,0.184-0.255,0.184h-2.265v1.175h2.296
		c0.505,0,0.899-0.14,1.172-0.416c0.377-0.381,0.376-0.88,0.376-0.899v-0.29C32.917,15.911,32.147,15.577,31.425,15.577z"/>
	<polygon fill="#333333" points="24.998,18.448 28.682,18.448 28.682,17.306 26.286,17.306 26.286,16.704 28.621,16.704 
		28.621,15.571 26.286,15.571 26.286,15.028 28.682,15.028 28.682,13.902 24.998,13.902 	"/>
	<path fill="#333333" d="M35.431,15.577c-0.04,0-0.064,0.001-0.065,0.001H34.57c-0.277,0-0.299-0.146-0.3-0.172V15.26
		c0-0.195,0.317-0.197,0.332-0.197h2.113v-1.165h-2.243c-1.503,0-1.542,1.284-1.542,1.299v0.211c0,1.296,1.418,1.362,1.703,1.362
		l0.728-0.001c0.199,0,0.234,0.15,0.238,0.162v0.163c0,0.166-0.252,0.184-0.255,0.184h-2.146l-0.008,1.175h2.186
		c0.505,0,0.899-0.14,1.172-0.416c0.133-0.135,0.208-0.279,0.264-0.417v-1.312C36.574,15.782,35.99,15.577,35.431,15.577z"/>
</g>
</svg>
