<?xml version="1.0" encoding="utf-8"?>
<!-- Generator: Adobe Illustrator 19.1.0, SVG Export Plug-In . SVG Version: 6.00 Build 0)  -->
<!DOCTYPE svg PUBLIC "-//W3C//DTD SVG 1.1//EN" "http://www.w3.org/Graphics/SVG/1.1/DTD/svg11.dtd">
<svg version="1.1" id="Layer_1" xmlns="http://www.w3.org/2000/svg" xmlns:xlink="http://www.w3.org/1999/xlink" x="0px" y="0px"
	 width="37px" height="24px" viewBox="0 0 37 24" enable-background="new 0 0 37 24" xml:space="preserve">
<path fill="#F1F1F1" d="M-0.014,3.999V18.78L37,18.805V4.024L-0.014,3.999z"/>
<g>
	<polygon fill="#F1F1F1" points="27.028,13.292 28.872,13.292 28.206,10.108 	"/>
	<path fill="#263C80" d="M9.612,9.966c0.043,0.22,0.088,0.455,0.136,0.696C9.7,10.42,9.654,10.185,9.612,9.966z"/>
	<path fill="#263C80" d="M9.881,11.342c0.031,0.158,0.062,0.315,0.092,0.468C9.943,11.657,9.912,11.5,9.881,11.342z"/>
	<path fill="#263C80" d="M9.763,10.739c0.033,0.169,0.066,0.339,0.1,0.509C9.829,11.078,9.796,10.907,9.763,10.739z"/>
	<path fill="#333333" d="M12.448,7.902l-2.118,5.704c0,0-0.148-0.742-0.328-1.652c0.031,0.154,0.06,0.305,0.088,0.447
		c0,0-0.562-2.017-2.935-3.392l1.91,7.211h2.289l3.399-8.318H12.448z"/>
	<path fill="#263C80" d="M8.758,7.98C8.804,7.998,8.85,8.018,8.897,8.044C8.85,8.018,8.804,7.998,8.758,7.98z"/>
	<path fill="#263C80" d="M9.432,9.018c0.004,0.019,0.007,0.038,0.011,0.059C9.439,9.056,9.435,9.037,9.432,9.018z"/>
	<path fill="#263C80" d="M9.461,9.174c0.003,0.018,0.007,0.035,0.01,0.054C9.467,9.209,9.464,9.192,9.461,9.174z"/>
	<path fill="#263C80" d="M9.501,9.389c0.005,0.024,0.01,0.05,0.014,0.075C9.511,9.439,9.506,9.413,9.501,9.389z"/>
	<path fill="#263C80" d="M8.473,7.91c0.033,0.004,0.07,0.01,0.109,0.018C8.543,7.92,8.506,7.914,8.473,7.91z"/>
	<path fill="#263C80" d="M8.601,7.932C8.642,7.941,8.685,7.954,8.73,7.97C8.685,7.954,8.642,7.941,8.601,7.932z"/>
	<path fill="#263C80" d="M9.322,8.545C9.35,8.618,9.375,8.697,9.39,8.788C9.375,8.697,9.35,8.618,9.322,8.545z"/>
	<path fill="#263C80" d="M9.409,8.893c0.003,0.014,0.005,0.03,0.008,0.044C9.414,8.922,9.411,8.907,9.409,8.893z"/>
	<path fill="#263C80" d="M9.209,8.328c0.037,0.053,0.07,0.113,0.099,0.18C9.279,8.441,9.246,8.381,9.209,8.328z"/>
	<path fill="#263C80" d="M8.917,8.057C8.962,8.083,9.006,8.114,9.049,8.15C9.006,8.114,8.962,8.083,8.917,8.057z"/>
	<path fill="#263C80" d="M9.063,8.162C9.107,8.2,9.148,8.247,9.186,8.297C9.148,8.246,9.107,8.2,9.063,8.162z"/>
	<path fill="#263C80" d="M9.577,9.785C9.582,9.813,9.588,9.84,9.593,9.868C9.588,9.84,9.582,9.813,9.577,9.785z"/>
	<path fill="#263C80" d="M9.538,9.582c0.005,0.028,0.011,0.056,0.016,0.085C9.549,9.638,9.543,9.609,9.538,9.582z"/>
	<path fill="#263C80" d="M8.316,7.902h0.051C8.335,7.901,8.316,7.902,8.316,7.902z"/>
	<path fill="#263C80" d="M8.377,7.902C8.401,7.903,8.43,7.905,8.464,7.909C8.429,7.905,8.401,7.903,8.377,7.902z"/>
	<path fill="#F7991C" d="M8.73,7.97c0.009,0.003,0.019,0.007,0.028,0.01C8.748,7.977,8.739,7.973,8.73,7.97z"/>
	<path fill="#F7991C" d="M8.897,8.044c0.007,0.004,0.013,0.008,0.02,0.012C8.91,8.053,8.903,8.048,8.897,8.044z"/>
	<polygon fill="#F7991C" points="8.371,7.902 8.366,7.902 8.377,7.902 	"/>
	<path fill="#F7991C" d="M8.464,7.909c0.003,0,0.006,0.001,0.008,0.001C8.47,7.909,8.467,7.909,8.464,7.909z"/>
	<path fill="#F7991C" d="M8.582,7.928C8.588,7.93,8.594,7.931,8.601,7.932C8.594,7.931,8.589,7.93,8.582,7.928z"/>
	<path fill="#F7991C" d="M9.593,9.868C9.599,9.9,9.606,9.933,9.612,9.966C9.606,9.933,9.599,9.9,9.593,9.868z"/>
	<path fill="#F7991C" d="M9.973,11.81c0.009,0.048,0.019,0.096,0.028,0.143C9.992,11.906,9.983,11.858,9.973,11.81z"/>
	<path fill="#F7991C" d="M9.554,9.666c0.007,0.039,0.015,0.078,0.023,0.118C9.569,9.745,9.562,9.705,9.554,9.666z"/>
	<path fill="#F7991C" d="M9.049,8.15c0.005,0.004,0.01,0.007,0.014,0.011C9.058,8.158,9.054,8.154,9.049,8.15z"/>
	<path fill="#F7991C" d="M9.747,10.662c0.005,0.026,0.01,0.051,0.015,0.077C9.757,10.713,9.752,10.687,9.747,10.662z"/>
	<path fill="#F7991C" d="M9.516,9.465C9.523,9.503,9.53,9.541,9.538,9.582C9.53,9.541,9.523,9.503,9.516,9.465z"/>
	<path fill="#F7991C" d="M9.862,11.248c0.006,0.031,0.012,0.063,0.019,0.094C9.875,11.311,9.869,11.279,9.862,11.248z"/>
	<path fill="#F7991C" d="M9.308,8.508C9.313,8.52,9.317,8.533,9.322,8.545C9.317,8.533,9.313,8.52,9.308,8.508z"/>
	<path fill="#F7991C" d="M9.471,9.228c0.01,0.051,0.02,0.105,0.031,0.162C9.49,9.333,9.48,9.279,9.471,9.228z"/>
	<path fill="#F7991C" d="M9.186,8.297c0.008,0.01,0.015,0.02,0.023,0.031C9.202,8.317,9.194,8.308,9.186,8.297z"/>
	<path fill="#F7991C" d="M9.417,8.937c0.005,0.026,0.01,0.052,0.015,0.081C9.426,8.99,9.421,8.963,9.417,8.937z"/>
	<path fill="#F7991C" d="M9.442,9.076C9.448,9.107,9.454,9.14,9.461,9.174C9.454,9.14,9.448,9.107,9.442,9.076z"/>
	<path fill="#F7991C" d="M9.39,8.788c0.005,0.03,0.012,0.066,0.018,0.104C9.402,8.855,9.396,8.819,9.39,8.788z"/>
	<path fill="#989898" d="M10.002,11.953c-0.009-0.047-0.019-0.095-0.028-0.143c-0.03-0.153-0.061-0.31-0.092-0.469
		c-0.006-0.031-0.012-0.063-0.019-0.094c-0.033-0.17-0.067-0.34-0.1-0.509c-0.005-0.026-0.01-0.052-0.015-0.077
		C9.7,10.42,9.654,10.186,9.612,9.966C9.606,9.933,9.599,9.9,9.593,9.868C9.588,9.84,9.582,9.813,9.577,9.785
		c-0.008-0.04-0.015-0.08-0.023-0.118C9.549,9.638,9.543,9.609,9.538,9.582C9.53,9.541,9.523,9.503,9.516,9.465
		c-0.005-0.025-0.01-0.051-0.014-0.075C9.49,9.333,9.48,9.279,9.471,9.228c-0.004-0.019-0.007-0.036-0.01-0.054
		C9.454,9.14,9.448,9.107,9.442,9.076c-0.004-0.02-0.007-0.04-0.011-0.059C9.426,8.99,9.421,8.963,9.417,8.937
		c-0.003-0.015-0.006-0.03-0.008-0.044C9.402,8.854,9.396,8.819,9.39,8.788c-0.016-0.091-0.04-0.17-0.069-0.244
		C9.317,8.533,9.313,8.52,9.308,8.508c-0.029-0.067-0.062-0.127-0.099-0.18C9.202,8.318,9.194,8.308,9.186,8.298
		C9.148,8.247,9.107,8.2,9.063,8.162C9.058,8.158,9.054,8.154,9.049,8.15C9.006,8.114,8.962,8.083,8.917,8.057
		C8.91,8.053,8.903,8.048,8.897,8.044C8.85,8.018,8.804,7.997,8.758,7.98C8.749,7.977,8.739,7.973,8.73,7.97
		C8.686,7.954,8.642,7.941,8.601,7.932C8.594,7.931,8.588,7.93,8.582,7.928C8.543,7.92,8.506,7.914,8.473,7.91
		c-0.003,0-0.006-0.001-0.008-0.001C8.43,7.905,8.401,7.903,8.377,7.902c-0.004,0-0.007,0-0.011,0h-0.05H6.862H4.889v0.201
		c0.899,0.224,1.642,0.544,2.266,0.906C9.529,10.384,10.09,12.4,10.09,12.4C10.062,12.258,10.032,12.108,10.002,11.953z"/>
	<polygon fill="#333333" points="15.587,7.902 14.254,16.219 16.394,16.219 17.739,7.901 	"/>
	<path fill="#333333" d="M22.569,11.505c0,0-0.987-0.502-1.409-0.752c-0.455-0.269-0.316-0.649-0.316-0.649s0.214-0.624,1.29-0.624
		c1.076,0,1.777,0.453,1.777,0.453l0.282-1.819c-0.581-0.231-1.298-0.307-1.298-0.307s-1.23-0.111-2.306,0.222
		c-1.076,0.333-1.606,1.238-1.606,1.238s-0.615,1.068-0.167,2.029c0.448,0.961,1.554,1.409,2.135,1.683
		c0.581,0.273,0.683,0.611,0.683,0.611s0.141,0.354-0.243,0.726c-0.384,0.372-1.32,0.303-1.32,0.303
		c-1.063,0-2.011-0.589-2.011-0.589l-0.32,1.871c0,0,0.85,0.457,2.268,0.457c1.879,0,2.75-0.726,2.75-0.726s1.153-0.752,1.136-2.144
		C23.876,12.094,22.569,11.505,22.569,11.505z"/>
	<path fill="#333333" d="M27.956,7.902c-0.756,0-0.955,0.547-0.955,0.547l-3.261,7.77h2.274l0.436-1.262h2.742l0.269,1.262h1.999
		l-1.742-8.318C29.718,7.902,28.712,7.902,27.956,7.902z M27.028,13.292l1.179-3.184l0.666,3.184H27.028z"/>
	<polygon fill="none" points="15.587,7.902 14.254,16.219 16.394,16.219 17.739,7.901 	"/>
	<path fill="none" d="M22.569,11.505c0,0-0.987-0.502-1.409-0.752c-0.455-0.269-0.316-0.649-0.316-0.649s0.213-0.624,1.29-0.624
		c1.076,0,1.777,0.453,1.777,0.453l0.282-1.819c-0.581-0.231-1.298-0.307-1.298-0.307s-1.23-0.111-2.306,0.222
		c-1.076,0.333-1.606,1.238-1.606,1.238s-0.615,1.068-0.167,2.029c0.448,0.961,1.554,1.409,2.135,1.683
		c0.581,0.273,0.683,0.611,0.683,0.611s0.141,0.354-0.243,0.726c-0.384,0.372-1.32,0.303-1.32,0.303
		c-1.063,0-2.011-0.589-2.011-0.589l-0.32,1.87c0,0,0.85,0.457,2.268,0.457c1.879,0,2.75-0.726,2.75-0.726s1.153-0.752,1.136-2.144
		C23.876,12.094,22.569,11.505,22.569,11.505z"/>
	<path fill="none" d="M12.448,7.902l-2.118,5.704c0,0-0.148-0.742-0.328-1.652c-0.009-0.047-0.019-0.095-0.028-0.143
		c-0.03-0.153-0.061-0.31-0.092-0.469c-0.006-0.031-0.012-0.063-0.019-0.094c-0.033-0.17-0.067-0.34-0.1-0.509
		c-0.005-0.026-0.01-0.052-0.015-0.077C9.7,10.42,9.654,10.185,9.612,9.966C9.606,9.933,9.599,9.9,9.593,9.868
		C9.588,9.84,9.582,9.813,9.577,9.785c-0.008-0.04-0.015-0.08-0.023-0.118C9.549,9.638,9.543,9.609,9.538,9.582
		C9.53,9.541,9.523,9.503,9.516,9.465c-0.005-0.025-0.01-0.051-0.014-0.075C9.49,9.333,9.48,9.279,9.471,9.228
		c-0.004-0.019-0.007-0.036-0.01-0.054C9.454,9.14,9.448,9.107,9.442,9.076c-0.004-0.02-0.007-0.04-0.011-0.059
		C9.426,8.99,9.421,8.963,9.417,8.937c-0.003-0.015-0.006-0.03-0.008-0.044C9.402,8.854,9.396,8.819,9.39,8.788
		c-0.016-0.091-0.04-0.17-0.069-0.244C9.317,8.533,9.313,8.52,9.308,8.508c-0.029-0.067-0.062-0.127-0.099-0.18
		C9.202,8.317,9.194,8.308,9.186,8.298C9.148,8.246,9.107,8.2,9.063,8.162C9.058,8.158,9.054,8.154,9.049,8.15
		C9.006,8.114,8.962,8.083,8.917,8.057C8.91,8.053,8.903,8.048,8.897,8.044C8.85,8.018,8.804,7.998,8.758,7.98
		C8.748,7.977,8.739,7.973,8.73,7.97C8.685,7.954,8.642,7.941,8.601,7.932C8.594,7.931,8.589,7.93,8.582,7.928
		C8.543,7.92,8.506,7.914,8.473,7.91c-0.003,0-0.006-0.001-0.008-0.001C8.429,7.905,8.401,7.903,8.377,7.902
		c-0.001,0-0.004,0-0.005,0H8.366c-0.031-0.001-0.05,0-0.05,0H6.862H4.889v0.201c0.899,0.224,1.642,0.544,2.266,0.906l1.91,7.211
		h2.289l3.399-8.317H12.448z"/>
	<path fill="none" d="M29.718,7.902c0,0-1.006,0-1.762,0c-0.756,0-0.954,0.547-0.954,0.547l-3.261,7.77h2.274l0.436-1.262h2.742
		l0.269,1.262h1.999L29.718,7.902z"/>
</g>
<path fill="#333333" d="M-0.014,19.917v1.336c0,1.511,1.236,2.747,2.747,2.747l31.52,0.025c1.511,0,2.747-1.236,2.747-2.747v-1.336
	v-1.325l-37.014-0.025V19.917z"/>
<path fill="#333333" d="M37,2.776c0-1.511-1.236-2.747-2.747-2.747L2.733,0.004c-1.511,0-2.747,1.236-2.747,2.747v2.661L37,5.437
	V2.776z"/>
</svg>
