<?xml version="1.0" encoding="utf-8"?>
<!-- Generator: Adobe Illustrator 19.1.0, SVG Export Plug-In . SVG Version: 6.00 Build 0)  -->
<!DOCTYPE svg PUBLIC "-//W3C//DTD SVG 1.1//EN" "http://www.w3.org/Graphics/SVG/1.1/DTD/svg11.dtd">
<svg version="1.1" id="Layer_1" xmlns="http://www.w3.org/2000/svg" xmlns:xlink="http://www.w3.org/1999/xlink" x="0px" y="0px"
	 width="37px" height="24px" viewBox="0 0 37 24" enable-background="new 0 0 37 24" xml:space="preserve">
<g>
	<path fill="#F1F1F1" d="M34.26,0H2.749C1.24,0,0.005,1.235,0.005,2.744L0,19.901v1.335c0,1.509,1.235,2.744,2.744,2.744h7.552l0,0
		c0.484-0.099,1.1-0.192,1.807-0.287C22.925,21.908,31.278,19.158,37,12.859l0.005-10.115C37.005,1.235,35.77,0,34.26,0z"/>
	<path fill="#989898" d="M12.103,23.693c-0.594,0.098-1.192,0.195-1.807,0.287l-0.001,0c3.805,0,24.148-0.005,24.24-0.014
		c0.828-0.085,1.549-0.541,1.994-1.198c0.297-0.438,0.47-0.966,0.47-1.532v-8.032v-0.345C31.278,19.158,22.925,21.908,12.103,23.693
		z"/>
	<path fill="none" d="M10.296,23.98c0.615-0.093,1.213-0.189,1.807-0.287C11.397,23.788,10.78,23.88,10.296,23.98z"/>
	<polygon fill="#989898" points="10.296,23.98 10.296,23.98 10.296,23.98 	"/>
</g>
<path fill="#F1F1F1" d="M4.381,9.842H3.998c0,0-0.044,0.145-0.044,1.533c0,1.388,0.044,1.589,0.044,1.589h0.471
	c0,0,1.532,0.04,1.532-1.541C6.001,9.842,4.381,9.842,4.381,9.842z"/>
<path fill="#333333" d="M5.11,9.119c0,0-0.564-0.123-1.148-0.109C3.481,9.023,3.126,9.084,3.126,9.084v4.656c0,0,0.569,0,1.18,0
	c0.611,0,0.992-0.1,0.992-0.1s1.644-0.44,1.644-2.325C6.942,9.431,5.11,9.119,5.11,9.119z M4.469,12.963H3.998V9.842h0.383
	c0,0,1.62,0,1.62,1.581C6.001,13.003,4.469,12.963,4.469,12.963z"/>
<polygon fill="#333333" points="7.375,9.072 7.375,13.74 8.264,13.74 8.264,9.058 "/>
<path fill="#333333" d="M11.882,12.281c0-0.84-0.675-1.121-0.675-1.121s-0.751-0.308-1.11-0.47
	c-0.358-0.161-0.314-0.449-0.314-0.449s0.029-0.147,0.12-0.249c0.091-0.103,0.232-0.182,0.232-0.182s0.17-0.088,0.358-0.088
	c0.188,0,0.358,0.12,0.358,0.12l0.382,0.282l0.462-0.668l-0.174-0.119c0,0-0.49-0.354-1.118-0.354c-0.628,0-0.96,0.26-0.96,0.26
	s-0.599,0.379-0.599,1.145c0,0.766,0.784,1.063,0.784,1.063s0.49,0.191,0.966,0.405c0.476,0.214,0.323,0.731,0.323,0.731
	s-0.126,0.461-0.737,0.461c-0.611,0-0.963-0.622-0.963-0.622l-0.572,0.567c0.159,0.382,0.705,0.669,0.705,0.669
	s0.364,0.211,0.96,0.211c0.596,0,1.019-0.341,1.019-0.341S11.882,13.121,11.882,12.281z"/>
<path fill="#333333" d="M15.789,12.501c0,0-0.405,0.534-1.092,0.534c-0.687,0-1.016-0.364-1.016-0.364s-0.575-0.48-0.575-1.244
	c0-0.764,0.505-1.222,0.505-1.222s0.411-0.411,1.045-0.411c0.634,0,1.133,0.481,1.133,0.481V9.237c0,0-0.384-0.254-1.139-0.254
	s-1.174,0.26-1.174,0.26s-1.303,0.63-1.303,2.185c0,1.555,1.292,2.142,1.292,2.142s0.593,0.302,1.28,0.302s1.045-0.297,1.045-0.297
	V12.501z"/>
<polygon fill="#333333" points="23.222,12.219 21.98,9.084 20.994,9.102 22.967,13.872 23.451,13.872 25.459,9.036 24.525,9.036 "/>
<polygon fill="#333333" points="25.899,13.74 28.506,13.74 28.506,12.977 26.815,12.977 26.815,11.691 28.418,11.691 28.418,10.907 
	26.806,10.907 26.806,9.868 28.506,9.872 28.506,9.036 25.899,9.036 "/>
<path fill="#333333" d="M31.394,11.691c0,0,0.74-0.285,0.74-1.289c0-1.004-1.033-1.253-1.033-1.253s-0.423-0.113-1.215-0.113
	c-0.531,0-0.79,0.048-0.79,0.048v4.656h0.928v-1.873c0.103,0,0.109,0.047,0.109,0.047l1.28,1.826h1.118l-1.479-1.952
	C31.207,11.761,31.394,11.691,31.394,11.691z M30.021,11.239V9.792c0,0,1.165-0.191,1.165,0.696
	C31.186,11.374,30.021,11.239,30.021,11.239z"/>
<path fill="#989898" d="M18.785,8.977c-1.353,0-2.45,1.097-2.45,2.45c0,1.353,1.097,2.45,2.45,2.45c1.353,0,2.45-1.097,2.45-2.45
	C21.235,10.074,20.138,8.977,18.785,8.977z"/>
</svg>
