<?xml version="1.0" encoding="utf-8"?>
<!-- Generator: Adobe Illustrator 19.1.0, SVG Export Plug-In . SVG Version: 6.00 Build 0)  -->
<!DOCTYPE svg PUBLIC "-//W3C//DTD SVG 1.1//EN" "http://www.w3.org/Graphics/SVG/1.1/DTD/svg11.dtd">
<svg version="1.1" id="Layer_1" xmlns="http://www.w3.org/2000/svg" xmlns:xlink="http://www.w3.org/1999/xlink" x="0px" y="0px"
	 width="11px" height="11px" viewBox="0 0 11 11" enable-background="new 0 0 11 11" xml:space="preserve">
<g>
	<path fill="#CCCCCC" d="M10.5,0.5v10h-10v-10H10.5 M11,0H0v11h11V0L11,0z"/>
</g>
<path fill="#414042" d="M4.494,8.81c-0.128,0-0.247-0.048-0.335-0.136L2.068,6.52c-0.2-0.184-0.207-0.495-0.016-0.694
	c0.184-0.2,0.495-0.207,0.694-0.016l1.532,1.093c0.088,0.08,0.223,0.064,0.295-0.032l3.631-4.485
	c0.16-0.215,0.471-0.263,0.686-0.096c0.215,0.16,0.263,0.471,0.096,0.686L4.885,8.611C4.797,8.722,4.669,8.794,4.533,8.802
	C4.518,8.81,4.51,8.81,4.494,8.81z"/>
</svg>
