<?xml version="1.0" encoding="utf-8"?>
<!-- Generator: Adobe Illustrator 19.1.0, SVG Export Plug-In . SVG Version: 6.00 Build 0)  -->
<!DOCTYPE svg PUBLIC "-//W3C//DTD SVG 1.1//EN" "http://www.w3.org/Graphics/SVG/1.1/DTD/svg11.dtd">
<svg version="1.1" id="Layer_1" xmlns="http://www.w3.org/2000/svg" xmlns:xlink="http://www.w3.org/1999/xlink" x="0px" y="0px"
	 width="11px" height="11px" viewBox="0 0 11 11" enable-background="new 0 0 11 11" xml:space="preserve">
<path fill="#6D6F71" d="M7.938,7.409c0.666-0.786,1.084-1.79,1.084-2.899c0-1.205-0.469-2.337-1.321-3.19
	C6.849,0.469,5.716,0,4.511,0C2.024,0,0,2.025,0,4.512c0,1.205,0.469,2.337,1.32,3.19c0.852,0.852,1.984,1.321,3.189,1.321H4.51
	c1.109,0,2.112-0.418,2.898-1.084L10.471,11L11,10.471L7.938,7.409z M4.509,8.274c-1.004,0-1.949-0.391-2.66-1.102
	c-0.71-0.71-1.101-1.655-1.101-2.66c0-2.075,1.688-3.763,3.763-3.763c2.074,0,3.761,1.687,3.761,3.761
	C8.273,6.585,6.584,8.273,4.509,8.274z"/>
</svg>
