<svg xmlns="http://www.w3.org/2000/svg" width="36.81" height="24" viewBox="0 0 36.81 24"><path fill="#333" d="M0 19.79v1.365C0 22.695 1.218 24 2.76 24h31.247c1.542 0 2.803-1.26 2.803-2.803v-1.364m0 .493V2.803C36.81 1.26 35.55 0 34.007 0H2.76C1.218 0 0 1.218 0 2.76v5.776L.945 6.26l.235-.552h2.74l.235.55.01.025v-.575h3.17l.244.527.484 1.048L8.5 6.26l.235-.552H18.9c.352.017.654.088.91.194v-.194h2.862v.394c.483-.288 1.014-.394 1.42-.394h4.291l.237.55.005.012v-.56h2.997l.265.44.122.202v-.644H35.672v6.115h-3.681l-.265-.442-.264-.44v.882H27.852l-.232-.562-.164-.397h-.924l-.158.39-.23.57h-2.02c-.55-.015-1.04-.15-1.448-.39v.39H7.007l-.003-.006v.006H3.386l-.225-.58-.153-.395H2.07l-.17.413-.234.562H1.06L0 11.78v8.503m36.81-1.555c-.307.396-.78.508-1.436.508h-3.08v-.148c-.254.09-.56.148-.926.148h-3.08l.003-.004h-5.78v-1.57h-.195v1.57h-2.848v-1.65c-.458.19-.905.22-1.144.22H17.735v1.435h-3.327l-.27-.303-.603-.672-.635.684-.27.29H7.252v-6.118h5.457l.27.303.603.676.642-.69.27-.288h3.908c.432 0 .782.08 1.065.194v-.194h3.824c.358.018.664.09.922.2v-.2h5.253v.175c.28-.112.61-.18 1-.18h3.027v.33c.23-.2.543-.33.978-.33h2.338v5.615z"/><path fill="#F1F1F1" d="M18.99 8.01v-.103s.005-.413-.547-.413H17.01v.97h1.45c0-.002.53-.01.53-.453zM2.526 7.295l-.72 1.76h1.44zM27.428 7.328l-.713 1.73h1.427zM22.49 8.557c.078-1.86 1.555-1.94 1.81-1.94h1.304v.902h-1.12c-.963 0-.95 1.08-.95 1.08v.336c0 .997.687 1.07.885 1.07.032 0 .052-.003.052-.003h.53l1.672-3.385h1.546l1.886 4.06V6.618h1.574l1.81 3.004V6.618h1.047v4.296h-1.46L31.125 7.66v3.253h-2.233l-.396-.96H26.35l-.614.96h-1.384c-1.893-.05-1.86-1.86-1.86-1.86v-.496zm-1.73-1.94h1.043v4.297H20.76V6.617zm-4.776 0h2.873c1.26.06 1.26 1.01 1.26 1.01v.185c0 .824-.733 1.108-.733 1.108s.192.022.448.27c.256.25.246.67.246.67v1.053h-1.05v-.892c0-.622-.482-.68-.663-.68-.042 0-.067.002-.067.002h-1.284v1.57h-1.03V6.618zm-4.157 0h3.434v.876h-2.395v.792H15.2v.884h-2.335v.85h2.396v.893h-3.433V6.617zM34.472 13.114c-.435 0-.747.13-.98.33v-.33h-3.026c-.388 0-.72.068-1 .18v-.176h-5.253v.2c-.258-.11-.563-.182-.92-.2h-3.825v.194c-.28-.115-.63-.194-1.064-.194h-3.908l-.27.29-.642.688-.603-.675-.27-.302H7.25v6.118H12.632l.27-.29.636-.684.602.672.27.302h3.327V17.8s1.275-.03 1.734-.218v1.65h8.823l-.003.004h3.078c.367 0 .673-.06.927-.148v.148h3.08c.656 0 1.213-.175 1.435-.55v-5.573h-2.338zM19.897 15.56c0 1.267-1.298 1.334-1.573 1.334h-1.498v1.434h-2.01l-1.267-1.414-1.314 1.414H8.162v-4.3h4.14l1.266 1.418 1.32-1.418h3.514c1.515 0 1.494 1.258 1.494 1.258v.273zm4.612-.338c0 .824-.733 1.108-.733 1.108s.193.022.448.27c.256.25.246.67.246.67v1.053h-1.05v-.892c0-.622-.48-.68-.662-.68-.042 0-.067.002-.067.002h-1.283v1.57h-1.03v-4.295h2.873c1.26.06 1.26 1.01 1.26 1.01v.185zm4.047-.32H26.16v.793h2.336v.884H26.16v.85h2.397v.893h-3.434v-4.296h3.434v.876zm4.235 2.236s.013 1.19-1.423 1.19h-2.172v-.925h2.14s.38-.02.38-.31v-.162s-.04-.286-.363-.286H30.627c-.29 0-1.577-.065-1.577-1.236v-.21s.02-1.175 1.417-1.175h2.118v.915h-1.988c-.023 0-.457.004-.457.322v.147s.002.297.425.297h.861c.278 0 1.366.068 1.366 1.144v.29zm4.006 0s.013 1.19-1.423 1.19h-2.06l.007-.925h2.022s.38-.02.38-.31v-.162s-.04-.286-.363-.286H34.634c-.29 0-1.577-.065-1.577-1.236v-.21s.02-1.175 1.417-1.175h2.118v.915H34.6c-.022 0-.456.004-.456.322v.147s.002.297.425.297H35.43c.278 0 1.366.068 1.366 1.144v.29zM18.263 14.906H16.82v1.115h1.474s.513-.003.513-.57c0-.522-.468-.544-.544-.544zM22.836 14.903h-1.433v.97h1.45s.53-.01.53-.452v-.103s.005-.414-.547-.414zM9.18 14.91v.8h2.26v.867H9.18v.867h2.533l1.174-1.267-1.115-1.266zM15.807 17.974V14.48L14.2 16.178z"/><path fill="none" d="M18.263 15.032h-1.316v.865h1.346c.066 0 .39-.03.39-.447 0-.378-.294-.418-.42-.418zM18.443 7.618h-1.308v.72h1.324c.038-.002.404-.02.404-.327v-.103c0-.048-.023-.29-.42-.29zM22.836 15.028h-1.308v.72h1.323c.04-.002.406-.02.406-.327v-.103c0-.05-.022-.29-.42-.29zM1.992 8.93H3.06l-.534-1.305zM9.305 15.035v.55h2.26v1.117h-2.26v.617h2.354l1.06-1.145-1.005-1.14zM26.902 8.933h1.053l-.527-1.277zM15.682 17.647v-2.852L14.37 16.18z"/><path fill="#333" d="M18.857 6.492H15.86v4.546h1.28v-1.57h1.172c.003 0 .023-.003.053-.003.245 0 .537.097.537.557v1.017h1.3V9.863c0-.02.01-.478-.283-.762-.093-.09-.18-.153-.252-.198.24-.166.573-.503.573-1.09v-.188c0-.01-.014-1.07-1.383-1.134zm.007 1.52c0 .306-.366.324-.405.325h-1.325v-.72h1.308c.397 0 .42.24.42.29v.104zM15.385 9.896H12.99v-.602h2.334V8.16H12.99v-.542h2.395V6.492h-3.683v4.546h3.683zM31.248 8.112l1.757 2.926h1.656V6.492h-1.297v2.68l-1.613-2.68h-1.77v3.866L28.3 6.492h-1.71l-1.447 3.385-.727.002c-.23 0-.76-.093-.76-.944V8.6c0-.005-.002-.47.273-.75.137-.137.323-.207.553-.207h1.245v-1.15H24.3c-.19 0-1.852.057-1.935 2.064v.494c0 .02-.013 1.935 1.98 1.988h1.7l.387-.96h1.978l.396.96h2.44V8.112zm-4.346.82l.526-1.276.526 1.277h-1.052zM9.874 8.122v2.916h1.304V6.492H9.253l-1.16 2.723-1.258-2.723H4.95v3.598L3.404 6.492H1.698l-1.813 4.315-.01.184 1.27.052.404-.978h1.995l.38.974h2.3V8.123l1.295 2.915h1.07l1.284-2.916zm-7.882.808l.534-1.305.533 1.305H1.99zM20.634 6.492h1.293v4.547h-1.293zM18.403 13.902h-3.567L13.57 15.26 12.36 13.9H8.036v4.55h4.252l1.256-1.354 1.212 1.354h2.192v-1.435h1.374c.284 0 1.698-.07 1.698-1.458v-.273c0-.022.005-.547-.39-.948-.285-.29-.698-.438-1.23-.438zM11.66 17.32H9.304V16.7h2.26v-1.117h-2.26v-.55h2.41l1.003 1.14-1.06 1.144zm4.022.327L14.37 16.18l1.312-1.385v2.852zm2.61-1.75h-1.345v-.866h1.316c.126 0 .42.042.42.418 0 .418-.324.447-.39.448zM23.256 13.902h-3.004v4.546h1.28v-1.57h1.176c.003 0 .022-.003.05-.003.246 0 .538.097.538.557v1.017h1.3v-1.175c0-.02.008-.48-.283-.762-.092-.09-.178-.153-.25-.198.24-.167.572-.504.572-1.092v-.186c0-.012-.017-1.07-1.38-1.135zm0 1.52c0 .306-.365.324-.404.325H21.53v-.72h1.307c.397 0 .42.24.42.29v.104zM31.425 15.577h-.861c-.277 0-.3-.145-.3-.17v-.147c0-.195.318-.197.332-.197h2.113v-1.165h-2.244c-1.503 0-1.542 1.284-1.542 1.3v.21c0 1.296 1.418 1.362 1.702 1.362h.728c.2 0 .234.15.238.16v.164c0 .166-.252.184-.255.184h-2.265v1.175h2.296c.505 0 .9-.14 1.172-.416.377-.38.376-.88.376-.9v-.29c0-.936-.77-1.27-1.49-1.27zM24.998 18.448h3.684v-1.142h-2.396v-.602h2.335V15.57h-2.334v-.542h2.396v-1.126h-3.684zM35.43 15.577H34.57c-.277 0-.3-.145-.3-.17v-.147c0-.195.317-.197.332-.197h2.113v-1.165h-2.243c-1.503 0-1.542 1.284-1.542 1.3v.21c0 1.296 1.418 1.362 1.703 1.362h.728c.2 0 .235.15.24.16v.164c0 .166-.253.184-.256.184h-2.146l-.008 1.175h2.186c.505 0 .9-.14 1.172-.416.133-.135.208-.28.264-.417v-1.312c-.238-.526-.822-.73-1.38-.73z"/></svg>