<svg xmlns="http://www.w3.org/2000/svg" width="37" height="24" viewBox="0 0 37 24"><path fill="#F1F1F1" d="M34.26 0H2.75C1.24 0 .004 1.235.004 2.744L0 19.9v1.336c0 1.51 1.235 2.744 2.744 2.744h7.552c.484-.1 1.1-.192 1.807-.287C22.925 21.908 31.278 19.158 37 12.86l.005-10.116C37.005 1.234 35.77 0 34.26 0z"/><path fill="#989898" d="M12.103 23.693c-.594.098-1.192.195-1.807.287 3.804 0 24.147-.005 24.24-.014.827-.085 1.548-.54 1.993-1.198.296-.438.47-.966.47-1.532V12.86c-5.722 6.298-14.075 9.048-24.897 10.833z"/><path fill="none" d="M10.296 23.98c.615-.093 1.213-.19 1.807-.287-.706.095-1.323.187-1.807.287z"/><path fill="#989898" d="M10.296 23.98z"/><path fill="#F1F1F1" d="M4.38 9.842H4s-.044.145-.044 1.533.044 1.59.044 1.59h.47s1.533.04 1.533-1.542c0-1.58-1.62-1.58-1.62-1.58z"/><path fill="#333" d="M5.11 9.12s-.564-.124-1.148-.11c-.48.013-.836.074-.836.074v4.656h1.18c.61 0 .992-.1.992-.1s1.644-.44 1.644-2.325C6.942 9.43 5.11 9.12 5.11 9.12zm-.64 3.843h-.472v-3.12h.383s1.62 0 1.62 1.58-1.53 1.54-1.53 1.54zM7.375 9.072v4.668h.89V9.058zM11.882 12.28c0-.84-.675-1.12-.675-1.12s-.75-.308-1.11-.47c-.358-.16-.314-.45-.314-.45s.03-.146.12-.248c.09-.103.232-.182.232-.182s.17-.088.358-.088c.188 0 .358.12.358.12l.383.282.462-.668-.174-.12s-.49-.353-1.117-.353c-.628 0-.96.26-.96.26s-.6.38-.6 1.145c0 .766.785 1.063.785 1.063s.49.192.966.406c.476.214.323.73.323.73s-.126.462-.737.462c-.61 0-.963-.622-.963-.622l-.572.567c.16.382.705.67.705.67s.364.21.96.21 1.02-.34 1.02-.34.552-.412.552-1.252zM15.79 12.5s-.406.535-1.093.535c-.687 0-1.016-.364-1.016-.364s-.574-.48-.574-1.243c0-.764.505-1.222.505-1.222s.412-.41 1.046-.41c.634 0 1.133.48 1.133.48V9.237s-.385-.254-1.14-.254-1.174.26-1.174.26-1.303.63-1.303 2.185c0 1.555 1.292 2.142 1.292 2.142s.593.302 1.28.302 1.045-.297 1.045-.297V12.5zM23.222 12.22L21.98 9.083l-.986.018 1.973 4.77h.484l2.01-4.836h-.935zM25.9 13.74h2.606v-.763h-1.69V11.69h1.602v-.783h-1.612v-1.04l1.7.005v-.836H25.9zM31.394 11.69s.74-.284.74-1.288S31.1 9.15 31.1 9.15s-.422-.114-1.214-.114c-.53 0-.79.048-.79.048v4.656h.928v-1.873c.103 0 .11.047.11.047l1.28 1.826h1.117l-1.478-1.952c.155-.027.342-.097.342-.097zm-1.373-.45V9.79s1.166-.19 1.166.696c0 .886-1.165.75-1.165.75z"/><path fill="#989898" d="M18.785 8.977c-1.353 0-2.45 1.097-2.45 2.45 0 1.353 1.097 2.45 2.45 2.45 1.353 0 2.45-1.097 2.45-2.45 0-1.353-1.097-2.45-2.45-2.45z"/></svg>