<svg xmlns="http://www.w3.org/2000/svg" width="37" height="24" viewBox="0 0 37 24"><path fill="#F1F1F1" d="M34.25 0H2.75C1.236 0 0 1.237 0 2.75V21.25C0 22.762 1.237 24 2.75 24H34.25C35.762 24 37 22.763 37 21.25V2.75C37 1.24 35.763 0 34.25 0z"/><circle fill="#989898" cx="24.597" cy="12.04" r="8.458"/><path fill="#333" d="M21.706 12.568c.01-.167.015-.335.015-.504v-.023l-.017-.526c-.01-.177-.028-.353-.05-.527h-5.446c.022-.178.05-.353.083-.527h5.28c-.035-.178-.074-.354-.12-.527h-5.043c.046-.178.098-.354.154-.527h4.734c-.06-.18-.124-.355-.194-.528h-4.346c.072-.18.15-.355.234-.527h3.876c-.088-.178-.182-.354-.282-.526h-3.315c.104-.18.214-.356.33-.527h2.652c-.125-.18-.255-.357-.393-.527h-1.872c.145-.182.298-.358.457-.527h.954c-1.54-1.623-3.72-2.635-6.134-2.635-4.67 0-8.458 3.787-8.458 8.458 0 4.67 3.787 8.458 8.458 8.458 2.187 0 4.18-.83 5.68-2.192-.173-.156-.34-.32-.5-.49h.997c.157-.168.31-.344.454-.526h-1.91c-.135-.17-.265-.346-.388-.527h2.684c.116-.172.225-.348.328-.528h-3.343c-.1-.172-.192-.348-.28-.527h3.9c.084-.173.16-.348.233-.527h-4.365c-.07-.173-.134-.35-.193-.527h4.748c.056-.172.107-.348.153-.526h-1.838c-.045-.174-.083-.35-.117-.527h2.07c.033-.174.06-.35.082-.527h-1.904v-.527h1.953zm-4.587.527h-.913c-.022-.174-.038-.35-.05-.527h.96v.527z"/><path fill="#fff" d="M5.624 14.177l.66-3.753H7.64l.126 2.158.917-2.158h1.434l-.67 3.753h-.802l.483-2.754-1.16 2.754h-.91l-.154-2.792-.478 2.792zM12.447 11.332c-.337-.242-.608-.245-.608-.245h-.81s-.227.015-.388.055c-.16.04-.205.095-.205.095l-.2.72s.365-.204 1.083-.204.472.46.472.46h-.516s-.593-.036-1.014.257c-.422.293-.462.84-.462.84s-.088.922.85.922c0 0 .588.03.936-.337l-.05.282h.75l.428-2.248s.07-.357-.267-.598zm-.787 1.808s-.095.432-.674.432c0 0-.315.015-.315-.286 0-.3.316-.447.316-.447s.25-.125.557-.125c0 0 .205 0 .194.062l-.077.363zM15.073 11.124l-.146.66s-.37-.053-.54-.053c-.17 0-.48-.002-.59.204 0 0-.18.21.377.404 0 0 .747.135.722.74-.025.608-.266.803-.266.803s-.302.322-1.126.322c-.824 0-1-.148-1-.148l.143-.654s.428.146.857.146c.428 0 .456-.225.456-.225s.05-.25-.137-.315c-.187-.066-1.013-.31-.964-.9.048-.59.304-.79.304-.79s.31-.282 1.12-.25c0 0 .525.02.79.06zM15.592 10.424l-.57 3.237s-.082.517.49.517h.513s.278-.026.384-.143l.087-.52s-.124.044-.395.044c-.27 0-.242-.172-.242-.172l.282-1.64.498-.005.117-.624h-.487l.128-.692h-.806zM18.12 11.066s-1.084-.09-1.482.99c-.398 1.083.233 1.706.233 1.706s.314.426 1.272.426c0 0 .513.025.868-.173l.122-.728s-.325.253-.852.253c0 0-.967.047-.898-.686h1.84s.07-.52.085-.68c.017-.163.01-1.108-1.186-1.108zm.407 1.21H17.48s.086-.572.553-.572c.53 0 .494.57.494.57zM19.184 14.177l.538-3.057h.83l-.09.48s.33-.51.687-.51h.332s-.242.323-.322.817c0 0-.256-.066-.546.082-.29.147-.348.67-.348.67l-.227 1.517h-.856zM23.835 13.186l-.115.77s-.192.233-.89.233c-.697 0-1-.285-1-.285s-1.005-.676-.412-2.318 2.34-1.252 2.34-1.252.294.066.546.184l-.132.798s-.346-.217-.857-.217-.752.28-.752.28-.393.465-.412 1.157c-.018.692.564.824.564.824s.655.202 1.12-.174zM26.58 11.332c-.337-.242-.608-.245-.608-.245h-.81s-.226.015-.387.055c-.16.04-.205.095-.205.095l-.2.72s.365-.204 1.083-.204.472.46.472.46h-.516s-.594-.036-1.015.257-.46.838-.46.838-.09.923.848.923c0 0 .59.03.937-.336l-.05.282h.75l.428-2.248s.068-.355-.268-.596zm-.788 1.808s-.095.432-.674.432c0 0-.315.015-.315-.286 0-.3.315-.447.315-.447s.25-.125.557-.125c0 0 .205 0 .194.062l-.078.363zM26.71 14.17l.54-3.057h.83l-.092.48s.32-.51.758-.51h.176s-.088.256-.168.75c0 0-.33-.028-.58.135-.273.177-.38.687-.38.687l-.226 1.516h-.857zM31.002 10.424l-.192 1.104s-.18-.423-.794-.423c-.612 0-1.068.574-1.068.574s-.428.52-.428 1.295.492 1.087.492 1.087.222.17.563.17c.34 0 .522-.13.522-.13s.118-.073.275-.194l-.047.268.838-.006.648-3.746h-.808zm-.538 2.685c-.225.397-.59.4-.59.4s-.275.025-.382-.343c-.126-.433.135-1.005.135-1.005s.19-.38.56-.38c.37 0 .434.44.434.44s.07.49-.156.887z"/></svg>