<svg xmlns="http://www.w3.org/2000/svg" width="37" height="24" viewBox="0 0 37 24"><path fill="#F1F1F1" d="M34.257-.046L2.747 0C1.236 0 .002 1.237.002 2.745v18.424C.003 22.677 1.238 24 2.746 24h31.51C35.766 24 37 22.765 37 21.257V2.835c0-1.51-1.235-2.88-2.743-2.88z"/><g fill="#333"><path d="M9.973 12.06c.005 2.102 1.318 3.894 3.168 4.605V7.453c-1.85.713-3.162 2.504-3.167 4.607zM21.552 3.568H14.89c-4.706 0-8.58 3.508-8.58 8.58 0 4.643 3.874 8.456 8.58 8.434h6.663c4.65 0 8.896-3.793 8.896-8.433 0-5.076-4.246-8.583-8.898-8.582zm-6.642 16.28c-4.3-.002-7.786-3.487-7.787-7.788 0-4.3 3.486-7.787 7.787-7.79 4.302.003 7.787 3.488 7.788 7.79 0 4.3-3.487 7.786-7.788 7.787zM16.676 7.452v9.215c1.852-.71 3.167-2.503 3.17-4.607-.003-2.103-1.318-3.897-3.17-4.608z"/></g></svg>