<svg xmlns="http://www.w3.org/2000/svg" width="37" height="24" viewBox="0 0 37 24"><path fill="#F1F1F1" d="M-.014 4v14.78L37 18.805V4.025L-.014 3.998zM27.028 13.292h1.844l-.666-3.184z"/><path fill="#263C80" d="M9.612 9.966l.136.696-.136-.696zM9.88 11.342l.093.468-.092-.468zM9.763 10.74l.1.508-.1-.51z"/><path fill="#333" d="M12.448 7.902l-2.118 5.704-.328-1.652.088.447s-.562-2.016-2.935-3.39l1.91 7.21h2.29l3.398-8.318h-2.305z"/><path fill="#263C80" d="M8.758 7.98c.046.018.092.038.14.064-.048-.026-.094-.046-.14-.064zM9.432 9.018l.01.06-.01-.06zM9.46 9.174c.004.018.008.035.01.054l-.01-.054zM9.5 9.39c.006.023.01.05.015.074L9.5 9.39zM8.473 7.91c.033.004.07.01.11.018-.04-.008-.077-.014-.11-.018zM8.6 7.932c.042.01.085.022.13.038-.045-.016-.088-.03-.13-.038zM9.322 8.545c.028.073.053.152.068.243-.015-.09-.04-.17-.068-.243zM9.41 8.893l.007.044-.008-.044zM9.21 8.328c.036.053.07.113.098.18-.03-.067-.062-.127-.1-.18zM8.917 8.057c.045.026.09.057.132.093-.044-.036-.088-.067-.133-.093zM9.063 8.162c.044.038.085.085.123.135-.038-.05-.08-.097-.123-.135zM9.577 9.785l.016.083-.016-.083zM9.538 9.582l.016.085-.016-.085zM8.316 7.902h.05-.05zM8.377 7.902c.024 0 .053.003.087.007-.035-.005-.063-.007-.087-.008z"/><path fill="#F7991C" d="M8.73 7.97l.028.01-.028-.01zM8.897 8.044l.02.012c-.007-.003-.014-.008-.02-.012zM8.37 7.902h-.004.01zM8.464 7.91h.008-.008zM8.582 7.928l.02.004c-.008 0-.013-.002-.02-.004zM9.593 9.868l.02.098-.02-.098zM9.973 11.81c.01.048.02.096.028.143l-.027-.143zM9.554 9.666l.023.118-.023-.118zM9.05 8.15l.013.01c-.005-.002-.01-.006-.014-.01zM9.747 10.662l.015.077-.015-.078zM9.516 9.465l.022.117-.022-.117zM9.862 11.248c.006.03.012.063.02.094l-.02-.094zM9.308 8.508l.014.037-.014-.037zM9.47 9.228l.032.162c-.012-.057-.022-.11-.03-.162zM9.186 8.297l.023.03-.024-.03zM9.417 8.937l.015.08-.015-.08zM9.442 9.076c.006.03.012.064.02.098-.008-.034-.014-.067-.02-.098zM9.39 8.788l.018.104-.018-.104z"/><path fill="#989898" d="M10.002 11.953c-.01-.047-.02-.095-.028-.143l-.092-.47c-.006-.03-.012-.062-.02-.093-.032-.17-.066-.34-.1-.51l-.014-.076c-.048-.24-.094-.474-.136-.694l-.02-.098c-.004-.028-.01-.055-.015-.083l-.023-.118-.016-.085-.022-.117-.014-.075c-.012-.057-.022-.11-.03-.162-.005-.02-.008-.036-.01-.054-.008-.034-.014-.067-.02-.098l-.01-.06c-.006-.026-.01-.053-.015-.08l-.008-.043-.02-.105c-.016-.09-.04-.17-.07-.244l-.012-.036c-.03-.067-.062-.127-.1-.18-.006-.01-.014-.02-.022-.03-.038-.05-.08-.098-.123-.136L9.05 8.15c-.044-.036-.088-.067-.133-.093l-.02-.013c-.047-.026-.093-.047-.14-.064l-.027-.01c-.044-.016-.088-.03-.13-.038-.006 0-.012-.002-.018-.004-.04-.008-.076-.014-.11-.018h-.007c-.035-.005-.064-.007-.088-.008H4.89v.2c.898.225 1.64.545 2.265.907 2.374 1.374 2.935 3.39 2.935 3.39l-.088-.447z"/><path fill="#333" d="M15.587 7.902l-1.333 8.317h2.14L17.74 7.9zM22.57 11.505s-.988-.502-1.41-.752c-.455-.27-.316-.65-.316-.65s.214-.623 1.29-.623 1.777.453 1.777.453l.283-1.82c-.58-.23-1.298-.306-1.298-.306s-1.23-.11-2.306.222c-1.077.332-1.607 1.237-1.607 1.237s-.615 1.068-.167 2.03c.448.96 1.554 1.408 2.135 1.682.582.272.684.61.684.61s.14.354-.243.726-1.32.303-1.32.303c-1.062 0-2.01-.59-2.01-.59l-.32 1.87s.85.458 2.268.458c1.88 0 2.75-.726 2.75-.726s1.153-.752 1.136-2.144c-.018-1.394-1.325-1.983-1.325-1.983zM27.956 7.902c-.756 0-.955.547-.955.547l-3.26 7.77h2.274l.436-1.263h2.742l.27 1.262h1.998L29.718 7.9c0 .002-1.006.002-1.762.002zm-.928 5.39l1.18-3.184.665 3.184h-1.845z"/><path fill="none" d="M15.587 7.902l-1.333 8.317h2.14L17.74 7.9zM22.57 11.505s-.988-.502-1.41-.752c-.455-.27-.316-.65-.316-.65s.213-.623 1.29-.623c1.076 0 1.777.453 1.777.453l.283-1.82c-.58-.23-1.298-.306-1.298-.306s-1.23-.11-2.306.222c-1.077.332-1.607 1.237-1.607 1.237s-.615 1.068-.167 2.03c.448.96 1.554 1.408 2.135 1.682.582.272.684.61.684.61s.14.354-.243.726-1.32.303-1.32.303c-1.062 0-2.01-.59-2.01-.59l-.32 1.87s.85.457 2.268.457c1.88 0 2.75-.726 2.75-.726s1.153-.75 1.136-2.143c-.018-1.393-1.325-1.982-1.325-1.982zM12.448 7.902l-2.118 5.704-.328-1.652c-.01-.047-.02-.095-.028-.143l-.092-.468c-.006-.03-.012-.063-.02-.094-.032-.17-.066-.34-.1-.51l-.014-.076-.136-.696-.02-.098c-.004-.028-.01-.055-.015-.083l-.023-.118-.016-.085-.022-.117-.014-.075c-.012-.057-.022-.11-.03-.162-.005-.02-.008-.036-.01-.054-.008-.034-.014-.067-.02-.098l-.01-.06c-.006-.026-.01-.053-.015-.08l-.008-.043-.02-.105c-.016-.09-.04-.17-.07-.244l-.012-.036c-.03-.067-.062-.127-.1-.18-.006-.01-.014-.02-.022-.03-.038-.052-.08-.098-.123-.136L9.05 8.15c-.044-.036-.088-.067-.133-.093l-.02-.013c-.047-.026-.093-.046-.14-.064l-.027-.01c-.045-.016-.088-.03-.13-.038-.006 0-.01-.002-.018-.004-.04-.008-.076-.014-.11-.018h-.007c-.036-.005-.064-.007-.088-.008H4.89v.2c.898.225 1.64.545 2.265.907l1.91 7.21h2.29l3.398-8.317h-2.305zM29.718 7.902h-1.762c-.756 0-.954.547-.954.547l-3.26 7.77h2.273l.436-1.263h2.743l.27 1.262h1.998L29.72 7.9z"/><path fill="#333" d="M-.014 19.917v1.336c0 1.51 1.236 2.747 2.747 2.747l31.52.025c1.51 0 2.747-1.236 2.747-2.747v-2.661l-37.014-.025v1.325zM37 2.776C37 1.266 35.764.03 34.253.03L2.733.003C1.223.004-.014 1.24-.014 2.75v2.662L37 5.437v-2.66z"/></svg>