<svg xmlns="http://www.w3.org/2000/svg" width="37" height="24" viewBox="0 0 37 24"><path fill="#F1F1F1" d="M34.21.01H2.703C1.192.01-.043 1.245-.043 2.755v17.25L.02 21.6c0 1.51 1.234 2.427 2.744 2.427h31.51c1.51 0 2.667-.917 2.667-2.427l.017-1.592V2.756c0-1.51-1.236-2.746-2.746-2.746z"/><g fill="#333"><path d="M6.854 6.094v7.238c.533.273 1.488.67 2.518.67 1.566 0 1.55-1.337 1.55-1.337v-3.47h2.487v3.557c0 .708-.473 1.228-.473 1.228s-.63.952-2.943.952c-1.7 0-2.718-.246-3.14-.377v6.105h4.344c1.545 0 2.81-1.264 2.81-2.81V3.286H9.662c-1.545 0-2.81 1.264-2.81 2.81zM14.894 6.105v3.83c.477-.388 1.338-.648 1.338-.648s.826-.254 2.238-.254 2.755.366 2.755.366v1.22c-1.428-.808-2.957-.625-2.957-.625s-1.346.136-1.664 1.334c-.325 1.22.307 1.935.307 1.935s.46.744 1.83.744 2.486-.668 2.486-.668v1.228c-.986.354-2.95.362-2.95.362-2.114 0-3.11-.674-3.38-.895v6.634h4.343c1.544 0 2.808-1.263 2.808-2.808V3.296h-4.344c-1.546 0-2.81 1.264-2.81 2.81zM24.315 13.884h1.645s.826.028.826-.767-.755-.77-.755-.77h-1.714v1.537zM22.907 6.184v3.008h3.948c.283 0 .616.026.616.026s1.44.087 1.44 1.298-1.352 1.4-1.352 1.4 1.692.025 1.692 1.41-1.692 1.44-1.692 1.44h-4.65v5.984h4.343c1.546 0 2.81-1.264 2.81-2.81V3.376h-4.344c-1.545 0-2.81 1.264-2.81 2.81zM26.597 10.752c0-.622-.673-.673-.673-.673h-1.61v1.388h1.646s.637.012.637-.716z"/></g></svg>