<svg xmlns="http://www.w3.org/2000/svg" width="11" height="11" viewBox="0 0 11 11"><path fill="#6D6F71" d="M7.938 7.41c.666-.787 1.084-1.79 1.084-2.9 0-1.205-.47-2.337-1.32-3.19C6.848.47 5.715 0 4.51 0 2.023 0 0 2.025 0 4.512c0 1.205.47 2.337 1.32 3.19.852.852 1.984 1.32 3.19 1.32 1.11 0 2.112-.417 2.898-1.083L10.47 11l.53-.53-3.062-3.06zm-3.43.864c-1.003 0-1.948-.39-2.66-1.102-.71-.71-1.1-1.655-1.1-2.66C.748 2.437 2.436.75 4.51.75s3.762 1.686 3.762 3.76c0 2.075-1.688 3.763-3.763 3.764z"/></svg>